<svg xmlns="http://www.w3.org/2000/svg" width="111" height="111" viewBox="0 0 111 111"><defs><style>.a{fill:#f5f4fa;opacity:0;}.b{fill:none;}.c{fill:#040506;}.d{fill:#e54911;}.e{fill:#da0018;}.f{fill:#f68a0c;}</style></defs><g transform="translate(-334 -144)"><rect class="a" width="111" height="111" transform="translate(334 144)"/><g transform="translate(352 168)"><g transform="translate(0 0)"><rect class="b" width="74.925" height="61.451" transform="translate(0 0)"/><path class="c" d="M912.892,680.979v-3.062a1.8,1.8,0,0,0-1.939-1.94,2.013,2.013,0,0,0-1.735.868,1.785,1.785,0,0,0-1.633-.868,1.649,1.649,0,0,0-1.429.714v-.612h-1.072v4.9h1.072v-2.705c0-.867.459-1.276,1.174-1.276s1.072.459,1.072,1.276v2.705h1.072v-2.705A1.129,1.129,0,0,1,910.646,677c.714,0,1.072.459,1.072,1.276v2.705Zm15.873-4.9H927.03V674.6h-1.072v1.48h-.97v.97h.97v2.246c0,1.123.459,1.786,1.684,1.786a2.853,2.853,0,0,0,1.327-.357l-.306-.919a1.678,1.678,0,0,1-.919.255c-.51,0-.714-.306-.714-.817v-2.195h1.735Zm9.085-.1a1.438,1.438,0,0,0-1.276.714v-.612H935.5v4.9h1.072v-2.756c0-.817.357-1.276,1.021-1.276a2.986,2.986,0,0,1,.664.1l.306-1.021A3.365,3.365,0,0,0,937.85,675.977Zm-13.729.51a3.5,3.5,0,0,0-1.99-.51c-1.225,0-2.042.613-2.042,1.582,0,.817.612,1.276,1.684,1.429l.51.051c.561.1.868.255.868.51,0,.357-.408.612-1.123.612a2.817,2.817,0,0,1-1.633-.51l-.511.817a3.61,3.61,0,0,0,2.093.612c1.429,0,2.246-.663,2.246-1.582,0-.868-.663-1.327-1.684-1.48l-.51-.051c-.459-.051-.817-.153-.817-.459,0-.357.357-.561.919-.561a3.677,3.677,0,0,1,1.531.408l.459-.868Zm28.48-.51a1.439,1.439,0,0,0-1.276.714v-.612h-1.072v4.9h1.072v-2.756c0-.817.357-1.276,1.021-1.276a2.984,2.984,0,0,1,.663.1l.306-1.021A3.366,3.366,0,0,0,952.6,675.977Zm-13.678,2.552a2.452,2.452,0,0,0,2.6,2.552,2.54,2.54,0,0,0,1.735-.561l-.51-.868a2.063,2.063,0,0,1-1.276.459,1.449,1.449,0,0,1-1.48-1.582,1.505,1.505,0,0,1,1.48-1.582,2.062,2.062,0,0,1,1.276.459l.51-.868a2.539,2.539,0,0,0-1.735-.561,2.452,2.452,0,0,0-2.6,2.552Zm9.9,0v-2.45h-1.072v.612a1.844,1.844,0,0,0-1.531-.714,2.554,2.554,0,0,0,0,5.1,1.718,1.718,0,0,0,1.531-.714v.613h1.072v-2.45Zm-3.93,0a1.483,1.483,0,1,1,2.96,0,1.483,1.483,0,1,1-2.96,0Zm-12.811-2.552a2.553,2.553,0,0,0,.051,5.1,3.121,3.121,0,0,0,1.99-.663l-.51-.766a2.439,2.439,0,0,1-1.429.51,1.377,1.377,0,0,1-1.48-1.174h3.624v-.408a2.255,2.255,0,0,0-2.246-2.6Zm0,.919a1.194,1.194,0,0,1,1.225,1.174h-2.552A1.292,1.292,0,0,1,932.082,676.9Zm26.591,1.633V674.14H957.6v2.552a1.844,1.844,0,0,0-1.531-.714,2.554,2.554,0,0,0,0,5.1,1.717,1.717,0,0,0,1.531-.714v.613h1.072v-2.45Zm-3.93,0a1.483,1.483,0,1,1,2.96,0,1.483,1.483,0,1,1-2.96,0Zm-35.829,0v-2.45h-1.072v.612a1.844,1.844,0,0,0-1.531-.714,2.554,2.554,0,0,0,0,5.1,1.717,1.717,0,0,0,1.531-.714v.613h1.072v-2.45Zm-3.981,0a1.483,1.483,0,1,1,2.96,0,1.483,1.483,0,1,1-2.96,0Z" transform="translate(-894.365 -627.235)"/><rect class="d" width="16.077" height="28.888" transform="translate(29.398 11.637)"/><path class="e" d="M913.583,507.517a18.423,18.423,0,0,1,6.992-14.444,18.374,18.374,0,1,0,0,28.888A18.347,18.347,0,0,1,913.583,507.517Z" transform="translate(-883.164 -481.436)"/><path class="f" d="M1061.011,507.517a18.355,18.355,0,0,1-29.7,14.444,18.414,18.414,0,0,0,0-28.888,18.355,18.355,0,0,1,29.7,14.444Z" transform="translate(-993.843 -481.436)"/></g></g></g></svg>