<svg xmlns="http://www.w3.org/2000/svg" width="65.014" height="53.322" viewBox="0 0 65.014 53.322"><defs><style>.a{fill:none;}.b{fill:#fff;}.c{fill:#e54911;}.d{fill:#da0018;}.e{fill:#f68a0c;}</style></defs><g transform="translate(-854.498 -452.769)"><g transform="translate(854.498 452.769)"><rect class="a" width="65.014" height="53.322" transform="translate(0 0)"/><path class="b" d="M911.859,680.075v-2.657a1.559,1.559,0,0,0-1.683-1.683,1.747,1.747,0,0,0-1.506.753,1.549,1.549,0,0,0-1.417-.753,1.431,1.431,0,0,0-1.24.62v-.531h-.93v4.252h.93v-2.347c0-.753.4-1.107,1.019-1.107s.93.4.93,1.107v2.347h.93v-2.347a.98.98,0,0,1,1.019-1.107c.62,0,.93.4.93,1.107v2.347Zm13.773-4.252h-1.506v-1.284h-.93v1.284h-.842v.841h.842v1.949c0,.974.4,1.55,1.461,1.55a2.475,2.475,0,0,0,1.151-.31l-.266-.8a1.456,1.456,0,0,1-.8.222c-.443,0-.62-.266-.62-.709v-1.9h1.506Zm7.883-.089a1.248,1.248,0,0,0-1.107.62v-.531h-.93v4.251h.93v-2.391c0-.709.31-1.107.885-1.107a2.6,2.6,0,0,1,.576.089l.266-.886A2.921,2.921,0,0,0,933.515,675.734Zm-11.913.443a3.04,3.04,0,0,0-1.727-.443c-1.063,0-1.771.531-1.771,1.373,0,.709.531,1.107,1.461,1.24l.443.044c.487.089.753.221.753.443,0,.31-.354.531-.974.531a2.445,2.445,0,0,1-1.417-.443l-.443.709a3.132,3.132,0,0,0,1.816.531c1.24,0,1.949-.576,1.949-1.373,0-.753-.576-1.151-1.461-1.284l-.443-.044c-.4-.044-.708-.133-.708-.4,0-.31.31-.487.8-.487a3.191,3.191,0,0,1,1.328.354l.4-.753Zm24.712-.443a1.248,1.248,0,0,0-1.107.62v-.531h-.93v4.251h.93v-2.391c0-.709.31-1.107.886-1.107a2.6,2.6,0,0,1,.576.089l.266-.886A2.922,2.922,0,0,0,946.314,675.734Zm-11.869,2.214a2.127,2.127,0,0,0,2.259,2.214,2.2,2.2,0,0,0,1.506-.487l-.443-.753a1.79,1.79,0,0,1-1.107.4,1.257,1.257,0,0,1-1.284-1.373,1.306,1.306,0,0,1,1.284-1.373,1.789,1.789,0,0,1,1.107.4l.443-.753a2.2,2.2,0,0,0-1.506-.487,2.127,2.127,0,0,0-2.259,2.214Zm8.592,0v-2.126h-.93v.531a1.6,1.6,0,0,0-1.329-.62,2.216,2.216,0,0,0,0,4.429,1.491,1.491,0,0,0,1.329-.62v.532h.93v-2.126Zm-3.41,0a1.287,1.287,0,1,1,2.569,0,1.287,1.287,0,1,1-2.569,0Zm-11.116-2.214a2.216,2.216,0,0,0,.044,4.429,2.708,2.708,0,0,0,1.727-.576l-.443-.664a2.116,2.116,0,0,1-1.24.443,1.2,1.2,0,0,1-1.284-1.019h3.144v-.354a1.957,1.957,0,0,0-1.949-2.259Zm0,.8a1.036,1.036,0,0,1,1.063,1.019h-2.214A1.121,1.121,0,0,1,928.511,676.532Zm23.074,1.417V674.14h-.93v2.214a1.6,1.6,0,0,0-1.329-.62,2.216,2.216,0,0,0,0,4.429,1.49,1.49,0,0,0,1.329-.62v.532h.93v-2.126Zm-3.41,0a1.287,1.287,0,1,1,2.568,0,1.287,1.287,0,1,1-2.568,0Zm-31.09,0v-2.126h-.93v.531a1.6,1.6,0,0,0-1.329-.62,2.216,2.216,0,0,0,0,4.429,1.49,1.49,0,0,0,1.329-.62v.532h.93v-2.126Zm-3.454,0a1.287,1.287,0,1,1,2.569,0,1.287,1.287,0,1,1-2.569,0Z" transform="translate(-895.783 -633.44)"/><rect class="c" width="13.95" height="25.067" transform="translate(25.509 10.097)"/><path class="d" d="M910.579,505.086a15.986,15.986,0,0,1,6.068-12.533,15.943,15.943,0,1,0,0,25.067A15.92,15.92,0,0,1,910.579,505.086Z" transform="translate(-884.184 -482.455)"/><path class="e" d="M1057.081,505.086a15.927,15.927,0,0,1-25.775,12.534,15.979,15.979,0,0,0,0-25.067,15.927,15.927,0,0,1,25.775,12.533Z" transform="translate(-998.799 -482.455)"/></g></g></svg>