<svg xmlns="http://www.w3.org/2000/svg" width="89.805" height="29.16" viewBox="0 0 89.805 29.16"><defs><style>.a{fill:#fff;}</style></defs><g transform="translate(-1839.228 -2546.176)"><path class="a" d="M2126.639,2572.781c-.9,0-1.8-.027-2.7.006a2.956,2.956,0,0,0-2.961,2.233,2.342,2.342,0,0,1-2.538,2.056c-1.448-.008-2.9.049-4.343.09-.735.021-.91-.383-.709-.978.3-.888.643-1.764,1.007-2.628q4.44-10.537,8.894-21.068c1.168-2.773,2.333-3.509,5.323-3.32.743.047,1.5-.008,2.229.09,1.751.234,2.387.8,2.753,2.532.955,4.515,1.863,9.041,2.806,13.559q1.017,4.874,2.081,9.738c.354,1.626.26,1.771-1.374,1.777-1.254,0-2.512.051-3.76-.037a1.3,1.3,0,0,1-.971-.709c-.68-2.99-1.323-3.388-4.792-3.315-.313.007-.627,0-.941,0Zm1.587-15.632-.385-.079a6.379,6.379,0,0,0-.539.94c-1.012,2.738-2,5.485-3,8.223-.281.762-.054,1.119.757,1.118,1.405,0,2.811-.008,4.216,0,.8.007,1.03-.392.878-1.121-.386-1.866-.758-3.735-1.149-5.6C2128.754,2559.471,2128.485,2558.311,2128.226,2557.149Z" transform="translate(-209.613 -2.27)"/><path class="a" d="M1839.286,2548.549c.36-.037.721-.1,1.081-.105,3.526-.008,7.052-.017,10.577,0,2.076.01,3.04.722,3.46,2.765.931,4.522,1.772,9.061,2.661,13.591.134.68.33,1.348.5,2.022l.332.075c.487-1.153,1-2.3,1.456-3.46,1.712-4.325,3.4-8.658,5.112-12.983a2.772,2.772,0,0,1,3.151-2.06c1.6.028,3.194.006,5.084.006-.32,1.011-.5,1.787-.8,2.513q-4.978,11.964-9.99,23.913a2.532,2.532,0,0,1-2.907,1.829c-1.527-.042-3.057-.055-4.584-.019-.832.019-1.18-.373-1.372-1.122q-2.4-9.375-4.83-18.741c-.186-.718-.351-1.443-.555-2.156a5.746,5.746,0,0,0-4.175-4.056c-1.194-.367-2.364-.815-3.533-1.255a3.709,3.709,0,0,1-.717-.479Z" transform="translate(0 -1.695)"/><path class="a" d="M2040.858,2546.176c1.035.226,2.934.618,4.82,1.061.816.192,1.138.673.85,1.571a17.069,17.069,0,0,0-.706,3.075c-.113.906-.514.929-1.265.8a46.212,46.212,0,0,0-5.116-.657,4.658,4.658,0,0,0-2.442.553c-2.114,1.2-2.2,2.455-.216,3.933a44.294,44.294,0,0,0,4.224,2.514c3.614,2.109,4.978,4.679,4.271,8.555-.582,3.2-2.714,5.211-5.622,6.428-4.353,1.821-8.782,1.6-13.225.348a1.723,1.723,0,0,1-1.364-2.128,21.093,21.093,0,0,1,.787-3.18,1.18,1.18,0,0,1,.981-.565c2.049.291,4.088.657,6.123,1.038a4.434,4.434,0,0,0,4.072-1.3,1.843,1.843,0,0,0,.172-2.891,13.949,13.949,0,0,0-2.607-1.944c-1.052-.673-2.187-1.215-3.245-1.878-5.563-3.485-3.931-9.92-.33-12.546C2033.679,2547.028,2036.711,2546.314,2040.858,2546.176Z" transform="translate(-142.1)"/><path class="a" d="M1984.812,2548.625c-.407,2.009-.757,3.8-1.135,5.587q-1.5,7.111-3.026,14.219c-.488,2.293-.984,4.584-1.46,6.879a1.423,1.423,0,0,1-1.7,1.309c-1.562-.087-3.132-.031-4.7-.015-.757.008-1.04-.209-.855-1.052,1.552-7.063,3.063-14.135,4.586-21.2.329-1.528.578-3.08,1.03-4.57a1.84,1.84,0,0,1,1.266-1.1C1980.72,2548.554,1982.635,2548.625,1984.812,2548.625Z" transform="translate(-101.45 -1.857)"/></g></svg>