<svg width="21" height="21" viewBox="0 0 21 21" fill="none" xmlns="http://www.w3.org/2000/svg">
<path d="M6.40186 5.97461C6.13664 5.97461 5.88229 6.07997 5.69475 6.2675C5.50721 6.45504 5.40186 6.70939 5.40186 6.97461C5.40186 7.23983 5.50721 7.49418 5.69475 7.68172C5.88229 7.86925 6.13664 7.97461 6.40186 7.97461H14.4019C14.6671 7.97461 14.9214 7.86925 15.109 7.68172C15.2965 7.49418 15.4019 7.23983 15.4019 6.97461C15.4019 6.70939 15.2965 6.45504 15.109 6.2675C14.9214 6.07997 14.6671 5.97461 14.4019 5.97461H6.40186Z" fill="#F17416"/>
<path d="M9.86629 16.3729C9.67875 16.1853 9.57339 15.931 9.57339 15.6658C9.57339 15.4006 9.67875 15.1462 9.86629 14.9587L15.5231 9.30181C15.7107 9.11427 15.965 9.00892 16.2302 9.00892C16.4955 9.00892 16.7498 9.11427 16.9374 9.30181C17.1249 9.48935 17.2302 9.7437 17.2302 10.0089C17.2302 10.2741 17.1249 10.5285 16.9374 10.716L11.2805 16.3729C11.093 16.5604 10.8386 16.6658 10.5734 16.6658C10.3082 16.6658 10.0538 16.5604 9.86629 16.3729Z" fill="#F17416"/>
<path d="M5.28035 9.30183C5.09281 9.1143 4.83846 9.00894 4.57324 9.00894C4.30803 9.00894 4.05367 9.1143 3.86614 9.30183C3.6786 9.48937 3.57324 9.74372 3.57324 10.0089C3.57324 10.2742 3.6786 10.5285 3.86614 10.716L9.52299 16.3729C9.71053 16.5604 9.96488 16.6658 10.2301 16.6658C10.4953 16.6658 10.7497 16.5604 10.9372 16.3729C11.1247 16.1854 11.2301 15.931 11.2301 15.6658C11.2301 15.4006 11.1247 15.1462 10.9372 14.9587L5.28035 9.30183Z" fill="#F17416"/>
<path fill-rule="evenodd" clip-rule="evenodd" d="M20.4019 10.9917C20.4019 16.5147 15.9249 20.9917 10.4019 20.9917C4.87886 20.9917 0.401855 16.5147 0.401855 10.9917C0.401855 5.4687 4.87886 0.991699 10.4019 0.991699C15.9249 0.991699 20.4019 5.4687 20.4019 10.9917ZM18.4019 10.9917C18.4019 13.1134 17.559 15.1483 16.0587 16.6486C14.5584 18.1488 12.5236 18.9917 10.4019 18.9917C8.28012 18.9917 6.24529 18.1488 4.745 16.6486C3.24471 15.1483 2.40186 13.1134 2.40186 10.9917C2.40186 8.86997 3.24471 6.83514 4.745 5.33485C6.24529 3.83455 8.28012 2.9917 10.4019 2.9917C12.5236 2.9917 14.5584 3.83455 16.0587 5.33485C17.559 6.83514 18.4019 8.86997 18.4019 10.9917Z" fill="#F17416"/>
</svg>
