<svg width="51" height="16" viewBox="0 0 51 16" fill="none" xmlns="http://www.w3.org/2000/svg">
<path d="M43.7165 13.3472C43.212 13.3472 42.7072 13.3323 42.2107 13.3472C41.8354 13.3353 41.4674 13.4503 41.1676 13.673C40.8678 13.8957 40.6545 14.2128 40.563 14.5714C40.5229 14.9035 40.3528 15.207 40.089 15.4175C39.8252 15.6279 39.4882 15.7287 39.1501 15.6984C38.3428 15.6984 37.5356 15.7253 36.7283 15.7481C36.3196 15.7601 36.2237 15.5384 36.3326 15.2115C36.5002 14.7245 36.691 14.2446 36.8939 13.7705C38.5421 9.91934 40.1927 6.06909 41.8456 2.21987C42.4955 0.699396 43.1444 0.295893 44.8094 0.399246C45.2232 0.425084 45.6419 0.399317 46.0506 0.448012C46.4404 0.435558 46.8193 0.574251 47.1061 0.834507C47.3928 1.09476 47.5644 1.45564 47.5835 1.8392C48.1153 4.31469 48.6208 6.7961 49.1455 9.27358C49.5229 11.0551 49.909 12.835 50.3039 14.6132C50.5057 15.5076 50.4494 15.5841 49.5392 15.587C48.8409 15.587 48.1403 15.6149 47.4451 15.5672C47.3298 15.5502 47.2205 15.506 47.1263 15.4383C47.0321 15.3707 46.9559 15.2817 46.9043 15.1787C46.5259 13.539 46.1676 13.3213 44.2361 13.361C44.0615 13.361 43.8869 13.361 43.7123 13.361L43.7165 13.3472ZM44.6005 4.77685L44.3864 4.73318C44.2707 4.89624 44.1696 5.06859 44.0839 5.24874C43.5208 6.74934 42.9736 8.25601 42.4105 9.7576C42.2541 10.175 42.3805 10.3707 42.8326 10.3707C43.6146 10.3707 44.3976 10.3707 45.1797 10.3707C45.6257 10.3707 45.7528 10.1562 45.668 9.75566C45.4531 8.73307 45.2462 7.70739 45.0282 6.68579C44.894 6.04977 44.7438 5.41187 44.5995 4.77685H44.6005Z" fill="white"/>
<path d="M0.434271 0.37661C0.636095 0.356735 0.837895 0.318867 1.03972 0.318867C3.00246 0.318867 4.96516 0.308929 6.92791 0.318867C7.15727 0.282199 7.392 0.293278 7.61675 0.351378C7.8415 0.409478 8.05129 0.51347 8.23279 0.65635C8.4143 0.799231 8.56341 0.978037 8.67047 1.18114C8.77752 1.38423 8.84018 1.60708 8.85438 1.83548C9.37206 4.31493 9.84132 6.80432 10.3358 9.28874C10.4095 9.66141 10.5194 10.0281 10.6122 10.3968L10.797 10.4375C11.0674 9.80551 11.3509 9.1785 11.6042 8.5405C12.5568 6.16937 13.4984 3.79319 14.45 1.42206C14.5446 1.05096 14.7777 0.728519 15.103 0.51927C15.4283 0.310021 15.8217 0.229366 16.2048 0.293149C17.0938 0.308056 17.9829 0.293149 19.0304 0.293149C18.8527 0.847672 18.7509 1.27299 18.5823 1.6705C16.735 6.04308 14.8809 10.4135 13.0201 14.7814C12.9271 15.1171 12.7096 15.4061 12.4107 15.5917C12.1118 15.7774 11.7531 15.8459 11.4054 15.7839C10.5547 15.761 9.70308 15.7541 8.85339 15.774C8.39021 15.7849 8.19638 15.5693 8.08941 15.1589C7.19936 11.7317 6.30301 8.30646 5.40018 4.88326C5.29927 4.48575 5.20438 4.08828 5.09136 3.70171C4.94044 3.16115 4.64582 2.67019 4.23782 2.27923C3.82982 1.88827 3.32316 1.61142 2.77033 1.47762C2.10532 1.27886 1.4585 1.03055 0.803576 0.789063C0.65911 0.717391 0.523617 0.629183 0.399902 0.526549L0.434271 0.37661Z" fill="white"/>
<path d="M33.5457 0.00582151C34.1219 0.130043 35.1785 0.344659 36.229 0.58714C36.6831 0.692479 36.8627 0.955773 36.7023 1.44868C36.5187 1.99868 36.3873 2.56419 36.3097 3.13805C36.2471 3.63493 36.0231 3.647 35.6033 3.57743C34.6613 3.40509 33.7102 3.28462 32.7546 3.21666C32.2819 3.19376 31.8118 3.29851 31.3953 3.51969C30.2186 4.17955 30.1712 4.86642 31.2751 5.67634C32.0328 6.17822 32.8181 6.63834 33.6275 7.05467C35.6397 8.21042 36.3986 9.61956 36.006 11.7452C35.8455 12.5517 35.4716 13.3021 34.9224 13.9208C34.3731 14.5395 33.6678 15.0046 32.8776 15.2691C30.5191 16.1731 27.9147 16.2407 25.5111 15.46C25.3812 15.4369 25.2574 15.3877 25.1476 15.3154C25.0379 15.2431 24.9445 15.1491 24.8733 15.0395C24.802 14.93 24.7545 14.8072 24.7337 14.6788C24.7129 14.5503 24.7191 14.4192 24.7522 14.2932C24.8524 13.7019 24.9992 13.1192 25.1912 12.5503C25.2485 12.4577 25.3285 12.3807 25.4239 12.3266C25.5193 12.2724 25.6271 12.2427 25.7372 12.2402C26.8775 12.3992 28.0127 12.6009 29.1459 12.8096C29.5542 12.8886 29.9762 12.8646 30.3726 12.74C30.769 12.6154 31.1271 12.3943 31.4135 12.097C31.5409 12.0098 31.6466 11.895 31.7226 11.7617C31.7985 11.6284 31.8427 11.48 31.8519 11.3275C31.8611 11.1749 31.8351 11.022 31.7758 10.8808C31.7164 10.7395 31.6253 10.6136 31.5093 10.512C31.0693 10.1025 30.5824 9.74496 30.0582 9.44666C29.4729 9.07797 28.8412 8.7807 28.2518 8.41698C27.6554 8.06337 27.159 7.56771 26.8085 6.97533C26.458 6.38295 26.2647 5.71294 26.2464 5.02757C26.2281 4.34221 26.3854 3.66356 26.7038 3.05386C27.0222 2.44416 27.4914 1.92317 28.0682 1.53918C29.685 0.47388 31.6016 -0.0626212 33.5457 0.00582151Z" fill="white"/>
<path d="M24.9731 0.329837C24.746 1.43093 24.5512 2.41676 24.3413 3.39364C23.7836 5.99334 23.2222 8.59202 22.6571 11.1897C22.3847 12.4468 22.1091 13.703 21.8437 14.9661C21.8369 15.0775 21.8059 15.1861 21.7528 15.2847C21.6997 15.3832 21.6257 15.4695 21.5359 15.5375C21.4461 15.6055 21.3425 15.6537 21.2321 15.6789C21.1218 15.7041 21.0073 15.7056 20.8962 15.6835C20.0264 15.6358 19.1524 15.6668 18.2805 15.6758C17.8597 15.6758 17.7014 15.5614 17.8053 15.0983C18.6691 11.2226 19.5107 7.34698 20.3584 3.47128C20.5421 2.63353 20.6803 1.78187 20.9316 0.965986C20.9923 0.817446 21.0879 0.685114 21.2107 0.580221C21.3335 0.475328 21.48 0.400711 21.6379 0.362591C22.6955 0.29104 23.7611 0.329837 24.9731 0.329837Z" fill="white"/>
</svg>
