<svg xmlns="http://www.w3.org/2000/svg" width="8.291" height="14.742" viewBox="0 0 8.291 14.742"><defs><style>.a{fill:#fff;}</style></defs><path class="a" d="M6.059,6.72l-3.11-.91a.849.849,0,0,1,.239-1.664H5.1a1.758,1.758,0,0,1,.985.3.449.449,0,0,0,.561-.058l1-.979a.467.467,0,0,0-.052-.705A4.071,4.071,0,0,0,5.1,1.843V.461A.462.462,0,0,0,4.642,0H3.721A.462.462,0,0,0,3.26.461V1.843H3.188A3.155,3.155,0,0,0,.05,5.286,3.3,3.3,0,0,0,2.463,8.068l2.951.864A.849.849,0,0,1,5.175,10.6H3.266a1.758,1.758,0,0,1-.985-.3.449.449,0,0,0-.561.058l-1,.979a.467.467,0,0,0,.052.705A4.071,4.071,0,0,0,3.26,12.9v1.382a.462.462,0,0,0,.461.461h.921a.462.462,0,0,0,.461-.461V12.894A3.252,3.252,0,0,0,8.146,10.8,3.162,3.162,0,0,0,6.059,6.72Z" transform="translate(-0.036)"/></svg>