<svg xmlns="http://www.w3.org/2000/svg" width="16.5" height="14.667" viewBox="0 0 16.5 14.667"><defs><style>.a{fill:#fff;}</style></defs><path class="a" d="M13.753,5.5H10.479L7.468.231A.459.459,0,0,0,7.07,0H5.194a.458.458,0,0,0-.441.584L6.158,5.5H3.211L1.973,3.85a.458.458,0,0,0-.367-.183H.461a.458.458,0,0,0-.445.569l.9,3.1-.9,3.1A.458.458,0,0,0,.461,11H1.607a.458.458,0,0,0,.367-.183l1.238-1.65H6.158l-1.4,4.916a.458.458,0,0,0,.441.584H7.07a.459.459,0,0,0,.4-.231l3.011-5.269h3.274c1.013,0,2.75-.821,2.75-1.833S14.765,5.5,13.753,5.5Z" transform="translate(-0.003)"/></svg>