<svg xmlns="http://www.w3.org/2000/svg" width="71.984" height="26.984" viewBox="0 0 71.984 26.984"><defs><style>.a{fill:#979ba7;}</style></defs><g transform="translate(-82.85 -500.875)"><path class="a" d="M152.683,516.882c-1.2-.661-2.941.48-3.227-1.352-.062-.4.964-.965,1.763-1.709a68.3,68.3,0,0,0-7.235-1.939,67.138,67.138,0,0,0-9.575-.865c-7.758-.122-15.52-.045-23.281-.05-.428,0-7.907.118-8.251-.055-.409-.205-.954-.668-.951-1.016s.567-.895.966-.983c.769-.169,8.592,0,9.377-.124.356-.056.919-.463.934-.736.089-1.587.044-3.181.044-5.088-2.884.16-5.593.241-8.281.519-.518.054-1.175.8-1.385,1.371a32.831,32.831,0,0,0-.942,3.9,8.09,8.09,0,0,1,2.039.129,7.928,7.928,0,0,1,1.646,1.052c-.568.342-1.108.915-1.708.988a7.473,7.473,0,0,1-7.108-2.853c-.7-.871-1.294-.763-2.31-.471-2.706.777-5.49,1.293-8.257,1.845-1.874.374-2.045.551-1.854,2.033l2.072,1.875L85.1,514.939c-.662,3.993.125,4.891,5.435,5.725,1.938-4.766,4.314-6.656,7.717-6.138,3.663.558,5.535,2.923,5.978,7.68h30.329c.074-.658.118-1.335.229-2a6.672,6.672,0,0,1,6.854-5.738,6.757,6.757,0,0,1,6.409,6.263,6.638,6.638,0,0,1-5.545,7.007,6.18,6.18,0,0,1-6.067-2.134,3.011,3.011,0,0,0-2.6-1.137c-9.687.029-19.375-.011-29.061.043a3.239,3.239,0,0,0-2.153.919,6.759,6.759,0,0,1-11.139-1.145,4,4,0,0,0-1.841-1.481c-1.126-.471-2.369-.656-3.538-1.034a4.449,4.449,0,0,1-3.223-4.316q-.061-3.29,0-6.583a3.282,3.282,0,0,1,2.675-3.342,4.451,4.451,0,0,1,.947-.165,27.124,27.124,0,0,0,12.577-3.955,19.147,19.147,0,0,1,10.316-2.48c2.031.067,4.074.116,6.1-.008a18.358,18.358,0,0,1,12.814,3.722,22.436,22.436,0,0,0,13.392,4.789c3.083.125,6.175,1.212,9.163,2.176,2.785.9,3.936,2.857,3.953,5.762.007,1.231.048,2.465-.025,3.692-.114,1.9-1.494,3.444-3.027,3.341a1.652,1.652,0,0,1-1.163-.8,1.269,1.269,0,0,1,.575-1.095c1.514-.335,1.53-1.424,1.51-2.6C152.67,518.9,152.683,517.887,152.683,516.882ZM115.4,503.314c0,1.373.074,2.7-.022,4.022-.088,1.222.38,1.549,1.555,1.531,4.055-.062,8.111-.02,12.167-.031a13.141,13.141,0,0,0,1.431-.19C125.822,505.422,121.515,502.171,115.4,503.314ZM141.33,525.7a4.532,4.532,0,1,0-4.5-4.617A4.5,4.5,0,0,0,141.33,525.7ZM92.887,521.16a4.555,4.555,0,1,0,4.592-4.537A4.512,4.512,0,0,0,92.887,521.16Zm7.668-12.955.77-3.594-2.441,1.329Z" transform="translate(0 0)"/><path class="a" d="M170.44,555.76q-5.2,0-10.407,0a3.274,3.274,0,0,1-1.266-.053,1.382,1.382,0,0,1-.212-.122,1.027,1.027,0,0,1-.089-1.608,3.878,3.878,0,0,1,.359-.292c.18-.129.519-.04.786-.04l21.614,0c.267,0,.6-.091.788.031.121.076.238.158.352.245a1.014,1.014,0,0,1-.164,1.736.692.692,0,0,1-.236.055c-2.451.1-4.908.051-7.363.053Q172.522,555.762,170.44,555.76Z" transform="translate(-51.095 -35.796)"/><circle class="a" cx="1.382" cy="1.382" r="1.382" transform="translate(140.094 519.753)"/><circle class="a" cx="1.382" cy="1.382" r="1.382" transform="translate(96.106 519.753)"/></g></svg>