<svg xmlns="http://www.w3.org/2000/svg" xmlns:xlink="http://www.w3.org/1999/xlink" width="124.563" height="136.198" viewBox="0 0 124.563 136.198"><defs><style>.a{fill:#0099b2;}.b{fill:#e56315;}.c{filter:url(#g);}.d{filter:url(#e);}.e{filter:url(#c);}.f{filter:url(#a);}</style><filter id="a" x="71.973" y="6.311" width="37.565" height="38.727" filterUnits="userSpaceOnUse"><feOffset dy="3" input="SourceAlpha"/><feGaussianBlur stdDeviation="3" result="b"/><feFlood flood-opacity="0.161"/><feComposite operator="in" in2="b"/><feComposite in="SourceGraphic"/></filter><filter id="c" x="81.544" y="43.029" width="43.019" height="28.397" filterUnits="userSpaceOnUse"><feOffset dy="3" input="SourceAlpha"/><feGaussianBlur stdDeviation="3" result="d"/><feFlood flood-opacity="0.161"/><feComposite operator="in" in2="d"/><feComposite in="SourceGraphic"/></filter><filter id="e" x="79.47" y="23.608" width="41.971" height="32.98" filterUnits="userSpaceOnUse"><feOffset dy="3" input="SourceAlpha"/><feGaussianBlur stdDeviation="3" result="f"/><feFlood flood-opacity="0.161"/><feComposite operator="in" in2="f"/><feComposite in="SourceGraphic"/></filter><filter id="g" x="0" y="0" width="110.628" height="136.198" filterUnits="userSpaceOnUse"><feOffset dy="3" input="SourceAlpha"/><feGaussianBlur stdDeviation="3" result="h"/><feFlood flood-opacity="0.161"/><feComposite operator="in" in2="h"/><feComposite in="SourceGraphic"/></filter></defs><g transform="translate(-2312.25 1144.099)"><g class="f" transform="matrix(1, 0, 0, 1, 2312.25, -1144.1)"><path class="a" d="M455.549,269.971c.107.032.216.062.314.082a4.318,4.318,0,0,0,4.214-1.367l10.417-11.333a4.65,4.65,0,0,0,1.239-3.41,4.788,4.788,0,0,0-1.566-3.289,4.406,4.406,0,0,0-6.33.252l-10.417,11.332a4.632,4.632,0,0,0-1.029,4.563A4.844,4.844,0,0,0,455.549,269.971Z" transform="translate(-371.2 -237.12)"/></g><g class="e" transform="matrix(1, 0, 0, 1, 2312.25, -1144.1)"><path class="a" d="M485.891,289.9a4.6,4.6,0,0,0-3.176-1.57l-15.854-1.115a4.448,4.448,0,0,0-4.828,4.229,4.657,4.657,0,0,0,3.269,4.837,4.713,4.713,0,0,0,1.044.191l15.853,1.115c.116.008.233.013.348.013a4.435,4.435,0,0,0,4.481-4.243A4.725,4.725,0,0,0,485.891,289.9Z" transform="translate(-371.48 -238.17)"/></g><g class="d" transform="matrix(1, 0, 0, 1, 2312.25, -1144.1)"><path class="a" d="M459.931,276.8a4.824,4.824,0,0,0,1.81,4.384,4.755,4.755,0,0,0,1.568.821,4.642,4.642,0,0,0,1.357.2,4.739,4.739,0,0,0,1.757-.341l14.632-5.821a4.288,4.288,0,0,0,2.758-3.409A4.82,4.82,0,0,0,482,268.254a4.672,4.672,0,0,0-4.683-.683l-14.632,5.821A4.288,4.288,0,0,0,459.931,276.8Z" transform="translate(-371.42 -237.62)"/></g><g class="c" transform="matrix(1, 0, 0, 1, 2312.25, -1144.1)"><path class="b" d="M464.076,310.075a12.275,12.275,0,0,0-4.643-1.717,14.555,14.555,0,0,0,.187-3.258,12.926,12.926,0,0,0-4.755-9.381,12.316,12.316,0,0,0-8.217-2.947c.41-3.553.083-9.7-5.96-13.436a15,15,0,0,0-5.482-2.1c5.872-8.143,6.342-8.986,6.5-9.277.086-.156.246-.418.429-.72,1.77-2.919,5.916-9.753,4.332-15.888a10.5,10.5,0,0,0-5.145-6.541,12.86,12.86,0,0,0-13.849.311,18.16,18.16,0,0,0-4.847,4.578l-8.87,11.115a29.527,29.527,0,0,0-5.78-4.971c-5.47-3.531-10.96-4.067-15.874-1.548-4.572,2.341-7.2,6.186-7.4,10.824-.209,4.932,2.459,9.694,5.078,11.389.148.115,3.606,2.86,3.385,6.947a41.424,41.424,0,0,1-.989,4.391l-5.669,7.106a35.878,35.878,0,0,0-7.789,29.327c2.756,15.161,12.681,24.738,20.522,30.1,5.68,3.888,13.941,6.207,23.888,6.709q.933.047,1.883.046c10.01,0,21.163-3.882,27.756-9.661,6.452-5.656,15.374-20.6,15.745-21.221a16.957,16.957,0,0,0,2.187-6.871C471.048,319.633,470.174,314.274,464.076,310.075Zm-26.613-58.52a2.782,2.782,0,0,1,1.484,1.743c.765,2.963-2.409,8.2-3.488,9.978-.224.368-.4.664-.534.9-.225.4-1.861,2.839-12.155,16.971-3.841,5.271-7.931,10.857-11.225,15.339a3.884,3.884,0,1,0,6.26,4.6c1.632-2.221,6.108-8.315,10.751-14.685l1.6-.929a6.4,6.4,0,0,1,6.45.471c3.613,2.233,2.181,7.145,1.739,8.405a98.531,98.531,0,0,1-10.324,12.234,3.891,3.891,0,0,0,.112,5.493,3.982,3.982,0,0,0,5.494-.112,129.734,129.734,0,0,0,8.932-10.22,3.568,3.568,0,0,0,.76-.332c.153-.086,3.761-2.066,6.575.276a5.193,5.193,0,0,1,1.971,3.863,8.836,8.836,0,0,1-1.983,5.724,3.811,3.811,0,0,0-.375.472c-.171.206-.351.411-.547.617l-7.073,7.575a3.882,3.882,0,0,0,.187,5.489,4,4,0,0,0,5.491-.187l7.051-7.55c.373-.394.74-.812,1.089-1.246,1.254-1.052,3.7-.118,3.963.022a6.923,6.923,0,0,1,2.218,9.756l-.025.041c-.086.145-8.684,14.535-14.2,19.374-5.666,4.966-15.585,8.139-24.128,7.7-8.514-.428-15.393-2.282-19.891-5.36-6.62-4.529-14.988-12.558-17.265-25.079a27.477,27.477,0,0,1,2.027-16.4,26.435,26.435,0,0,1,3.913-6.36c.064-.07.127-.142.182-.211l36.263-45.439a2.86,2.86,0,0,0,.171-.231,10.756,10.756,0,0,1,2.829-2.638,5.44,5.44,0,0,1,2.874-.9A5.667,5.667,0,0,1,437.462,251.555Zm-37.41,26.438a17.123,17.123,0,0,0-5.956-7.942,6.868,6.868,0,0,1-1.622-4.627c.086-1.807,1.1-3.145,3.174-4.211,5.863-3,12.512,5,12.582,5.088l.609.682Z" transform="translate(-369.14 -236.94)"/></g></g></svg>